<svg xmlns="http://www.w3.org/2000/svg" width="166" height="32" viewBox="0 0 166 32">
    <g fill="#212529" fill-rule="evenodd">
        <path d="M169.717 0c.952 0 1.816.403 2.444 1.052.626.649 1.015 1.544 1.015 2.528v24.84c0 .984-.389 1.878-1.015 2.526-.628.65-1.492 1.054-2.444 1.054h-69.459c-1.731 0-2.058-.937-.726-2.083l13.233-11.38c1.333-1.145 1.355-3.047.051-4.226L99.366 2.144C98.062.964 98.412 0 100.143 0h69.574zm-31.646 12.145h-1.838v4.958c0 .607.041 1.078.121 1.414.08.335.207.601.383.798.35.388.794.673 1.33.856.535.182 1.198.273 1.987.273.789 0 1.45-.09 1.983-.273.53-.183.972-.468 1.322-.856.18-.2.31-.474.392-.82.082-.347.123-.811.123-1.392v-4.958h-1.85v4.913c0 .77-.148 1.307-.442 1.608-.296.302-.805.452-1.53.452-.728 0-1.24-.152-1.536-.455-.296-.303-.445-.838-.445-1.605v-4.913zm-13.626 0h-4.554v8.209h1.85v-3.225h2.177l1.938 3.225h2.08l-2.194-3.425c.575-.115 1.015-.373 1.32-.771.305-.4.458-.913.458-1.543 0-.85-.248-1.473-.743-1.872-.493-.4-1.273-.598-2.332-.598zm10.736 0h-3.074c-1.413 0-2.457.344-3.13 1.036-.672.69-1.008 1.762-1.008 3.213 0 .748.113 1.392.337 1.93.226.537.563.975 1.013 1.308.347.262.717.447 1.11.557.394.11.936.165 1.624.165h3.128v-1.43h-3.037c-.751 0-1.286-.157-1.607-.47-.32-.312-.483-.826-.487-1.541h5.13v-1.425l-5.118-.005c.036-.645.225-1.125.565-1.44.341-.312.847-.47 1.517-.47h3.037v-1.428zm12.275 0h-2.34v8.208h1.896l-.083-6.21 3.781 6.21h2.142v-8.208h-1.885l.091 5.896-3.602-5.896zm8.577 0h-1.934v8.208h1.934v-8.208zm8.723-.001h-4.834c-1.072 0-1.856.202-2.35.604-.49.4-.738 1.039-.738 1.909 0 .816.234 1.412.704 1.79.467.378 1.21.568 2.223.568h2.181c.478 0 .815.071 1.012.216.196.146.296.39.296.731 0 .333-.109.569-.323.713-.215.143-.586.214-1.111.214h-4.626v1.464h4.918c1.061 0 1.839-.199 2.334-.595.494-.396.742-1.017.742-1.862 0-.833-.214-1.429-.644-1.785-.428-.359-1.15-.537-2.163-.537h-2.443c-.388 0-.678-.074-.872-.224-.196-.149-.293-.371-.293-.669 0-.373.115-.645.342-.816.23-.171.589-.257 1.08-.257h4.565v-1.464zm-40.747 1.464c.625 0 1.054.077 1.287.233.234.153.35.42.35.797 0 .379-.12.647-.358.804-.24.157-.666.235-1.28.235h-2.267v-2.069zm10.278-3.83h-1.763l-1.188 1.589h.86l2.09-1.59z" transform="translate(-8)"/>
        <path d="M12.56 20.265c-.818 0-1.426-.067-1.822-.2-.396-.133-.752-.364-1.066-.693-.29-.294-.493-.629-.612-1-.12-.372-.18-.894-.18-1.569v-5.08h1.84v5.022c0 .5.023.852.07 1.055.044.205.123.368.234.491.174.202.388.346.642.431.254.085.606.128 1.053.128h2.228l3.086-7.127h1.95l3.73 8.542h-2.046l-.803-2.033h-3.8l-.78 2.033H12.56zm87.367-7.02h-4.54c-.487 0-.846.09-1.073.268-.228.177-.343.461-.343.849 0 .31.097.542.292.697.193.156.483.233.867.233h2.431c1.009 0 1.727.187 2.153.559.426.37.64.99.64 1.858 0 .88-.247 1.526-.739 1.938-.492.413-1.266.618-2.322.618H92.4v-1.522h4.603c.523 0 .891-.076 1.106-.224.213-.15.32-.395.32-.741 0-.355-.097-.61-.294-.76-.195-.152-.531-.227-1.006-.227h-2.17c-1.009 0-1.745-.197-2.212-.59-.466-.393-.7-1.015-.7-1.864 0-.905.246-1.57.737-1.988.489-.417 1.268-.626 2.336-.626h4.808v1.522zM88.44 13.21c-.667 0-1.169.164-1.508.49-.34.328-.527.826-.562 1.499l5.091.006v1.48h-5.103c.004.745.166 1.28.484 1.606.32.326.851.488 1.598.488h3.021v1.488h-3.11c-.687 0-1.224-.056-1.616-.17-.392-.115-.76-.308-1.106-.58-.448-.349-.783-.802-1.007-1.363-.224-.56-.335-1.23-.335-2.008 0-1.51.335-2.626 1.004-3.345.67-.72 1.707-1.077 3.114-1.077h3.056v1.486H88.44zm-12.188-1.486h4.528c1.056 0 1.83.207 2.322.622.492.415.738 1.064.738 1.947 0 .655-.151 1.191-.455 1.606-.305.416-.742.683-1.313.804l2.182 3.563h-2.069l-1.928-3.355H78.09v3.355h-1.84v-8.542zm4.094 1.522h-2.255V15.4h2.255c.612 0 1.035-.081 1.273-.246.238-.163.358-.441.358-.837 0-.392-.117-.67-.349-.83-.232-.161-.659-.242-1.282-.242zm-7.302 7.02h1.924v-8.543h-1.924v8.543zm-5.079-7.245c-.787 0-1.377.24-1.768.72-.39.48-.585 1.206-.585 2.178 0 1.054.19 1.826.568 2.317.378.489.974.734 1.786.734.8 0 1.394-.243 1.78-.73.387-.485.58-1.234.58-2.244 0-1.015-.193-1.765-.58-2.249-.386-.485-.98-.726-1.78-.726zm-4.363 2.887c0-1.468.36-2.56 1.079-3.277.72-.717 1.814-1.074 3.284-1.074 1.483 0 2.58.361 3.291 1.086.712.724 1.067 1.842 1.067 3.353 0 1.51-.355 2.629-1.067 3.357-.711.728-1.808 1.092-3.29 1.092-1.498 0-2.6-.366-3.306-1.098-.706-.732-1.058-1.878-1.058-3.44zm-4.513-2.685h-2.826v-1.487h7.563v1.487H60.99v7.043h-1.9v-7.043zm-6.722-1.499h1.95l3.729 8.542H56l-.803-2.033h-3.799l-.779 2.033H47.21l-1.927-3.355h-2.166v3.355h-1.84v-8.542h4.53c1.055 0 1.829.207 2.32.622.492.415.738 1.064.738 1.947 0 .655-.151 1.191-.455 1.606-.302.416-.741.683-1.313.804l1.824 2.978 3.446-7.957zm.904 1.696l-1.279 3.29h2.605l-1.326-3.29zm-7.9-.174h-2.254V15.4h2.254c.612 0 1.036-.081 1.275-.246.238-.163.356-.441.356-.837 0-.392-.116-.67-.348-.83-.232-.161-.66-.242-1.283-.242zm-9.16-.225c-.788 0-1.377.24-1.767.72-.39.48-.586 1.206-.586 2.178 0 1.054.188 1.826.568 2.317.378.489.973.734 1.786.734.8 0 1.393-.243 1.78-.73.387-.485.58-1.234.58-2.244 0-1.015-.193-1.765-.58-2.249-.386-.485-.98-.726-1.78-.726zm-4.362 2.887c0-1.468.36-2.56 1.078-3.277.72-.717 1.814-1.074 3.285-1.074 1.482 0 2.58.361 3.29 1.086.712.724 1.068 1.842 1.068 3.353 0 1.51-.356 2.629-1.068 3.357-.71.728-1.808 1.092-3.29 1.092-1.498 0-2.6-.366-3.305-1.098-.706-.732-1.058-1.878-1.058-3.44zm-3.266 4.358h-4.815v-8.542h4.494c.566 0 1.027.03 1.381.093.356.06.643.16.86.295.322.198.566.453.735.768.168.314.252.67.252 1.07 0 .475-.105.88-.314 1.211-.21.331-.54.61-.987.833.452.187.785.438 1.001.753.217.316.325.713.325 1.188 0 .8-.239 1.387-.715 1.765-.475.377-1.214.566-2.217.566zm-.256-1.51c.42 0 .726-.08.917-.241.19-.16.286-.414.286-.758 0-.35-.097-.605-.29-.768-.192-.163-.496-.243-.913-.243h-2.72v2.01h2.72zm-2.72-5.497v1.975h2.69c.417 0 .722-.08.917-.242.194-.16.291-.41.291-.746 0-.34-.097-.591-.29-.75-.195-.158-.5-.237-.918-.237h-2.69zm-6.67.161l-1.278 3.29h2.604l-1.325-3.29z" transform="translate(-8)"/>
    </g>
</svg>
